<?xml version="1.0" encoding="UTF-8" standalone="no"?>
<svg
   width="72"
   height="72"
   viewBox="0 0 72 72"
   fill="none"
   version="1.1"
   id="svg12"
   sodipodi:docname="asm.svg"
   inkscape:version="1.2.2 (732a01da63, 2022-12-09)"
   xmlns:inkscape="http://www.inkscape.org/namespaces/inkscape"
   xmlns:sodipodi="http://sodipodi.sourceforge.net/DTD/sodipodi-0.dtd"
   xmlns="http://www.w3.org/2000/svg"
   xmlns:svg="http://www.w3.org/2000/svg">
  <defs
     id="defs16" />
  <sodipodi:namedview
     id="namedview14"
     pagecolor="#505050"
     bordercolor="#eeeeee"
     borderopacity="1"
     inkscape:showpageshadow="0"
     inkscape:pageopacity="0"
     inkscape:pagecheckerboard="0"
     inkscape:deskcolor="#505050"
     showgrid="false"
     inkscape:zoom="5.6568543"
     inkscape:cx="-11.932427"
     inkscape:cy="35.355339"
     inkscape:window-width="1707"
     inkscape:window-height="889"
     inkscape:window-x="-8"
     inkscape:window-y="-8"
     inkscape:window-maximized="1"
     inkscape:current-layer="svg12" />
  <path
     style="color:#000000;fill:#7b3fbf;-inkscape-stroke:none"
     d="M 0,0 V 1 72 H 72 V 0 Z M 2,2 H 70 V 70 H 2 Z"
     id="rect10" />
  <path
     style="color:#000000;fill:#7b3fbf;-inkscape-stroke:none"
     d="m 34.15625,24.572266 c -1.245492,0 -2.433209,0.151299 -3.546875,0.474609 h -0.002 l -0.002,0.002 c -1.090551,0.319852 -2.089709,0.794082 -2.960938,1.439453 -0.881885,0.644205 -1.603741,1.452478 -2.117187,2.404297 -3.08e-4,5.64e-4 3.07e-4,0.0014 0,0.002 -4.42e-4,8.19e-4 -0.0015,0.0011 -0.002,0.002 -0.534247,0.982421 -0.792969,2.075129 -0.792969,3.203125 0,1.130302 0.23573,2.223556 0.763672,3.201172 l 0.01172,0.02148 c 0.491191,0.886005 1.157494,1.65516 1.960938,2.296875 l 0.0098,0.0098 0.01367,0.0098 0.002,0.002 c 0.429812,0.332032 0.951501,0.574093 1.4375,0.851562 h -2.81836 -1.980469 L 19.474609,26.138672 18.986328,24.84375 H 17.681641 17.603516 16.556641 14.779297 13.761719 13.642578 12.375 L 11.888672,26.142578 4.4375,46.013672 3.4257813,48.716797 h 2.8847656 4.3925781 1.445313 l 0.455078,-1.371094 0.93164,-2.820312 h 4.31836 l 0.935546,2.820312 0.455079,1.371094 h 1.443359 4.40625 2.892578 l -0.755859,-2.003906 c 0.132602,0.102085 0.198279,0.268868 0.33789,0.363281 l 0.002,0.002 0.0078,0.0059 v -0.002 c 0.97598,0.652421 2.05374,1.137766 3.212891,1.455078 h 0.002 l 0.01172,0.0039 h 0.0039 c 1.12891,0.298375 2.279462,0.449218 3.443359,0.449218 1.249081,0 2.425835,-0.139727 3.519531,-0.441406 1.089312,-0.300496 2.088691,-0.758625 2.955078,-1.396484 0.681819,-0.501999 1.153482,-1.193963 1.605469,-1.894532 v 1.458985 2 h 2 4.117188 2 v -2 -2.429688 l 1.134765,3.113282 0.478516,1.316406 h 1.400391 2.808593 1.400391 l 0.478516,-1.316406 1.134765,-3.113282 v 2.429688 2 h 2 4.13086 2 v -2 -19.873047 -2 h -2 -0.472657 -1.427734 -1.597656 -0.957032 -0.943359 -1.414062 l -0.472657,1.333984 -3.263672,9.248047 -3.263671,-9.248047 -0.472657,-1.333984 h -1.414062 -0.94336 -0.957031 -1.597656 -1.427734 -0.458985 -2 v 2 1.751953 c -0.03308,-0.0524 -0.0436,-0.114284 -0.07813,-0.166016 C 41.431989,27.184267 40.274955,26.22265 38.888743,25.558628 37.469571,24.878757 35.872123,24.5723 34.156321,24.5723 Z m -8.660156,10.728515 -0.119141,-0.474609 v 0.259765 z m 8.660156,-8.728515 c 1.477595,0 2.764715,0.261927 3.869141,0.791015 1.105585,0.529597 1.949736,1.242486 2.560546,2.167969 l 0.002,0.002 v 0.002 c 0.620467,0.928073 0.921875,1.960018 0.921875,3.150391 H 37.40625 c 0,-0.576479 -0.131567,-1.10121 -0.373047,-1.527344 -0.226696,-0.423466 -0.618736,-0.803002 -1.099609,-1.050781 l -0.002,-0.002 c -0.489012,-0.256007 -1.091863,-0.38086 -1.84375,-0.38086 -0.418845,0 -0.702971,0.116697 -1.035157,0.189453 l -0.984375,0.412109 -0.666016,0.441407 -0.09764,0.117188 -0.03907,0.05669 c -0.101368,0.153134 -0.134017,0.21288 -0.193359,0.398437 l -0.01952,0.04488 -0.03071,0.0823 c -0.06749,0.214531 -0.156793,0.423024 -0.156793,0.646212 0,0.248796 0.0889,0.494821 0.1875,0.71875 l 0.33655,0.472715 0.401732,0.396426 c 0.03803,0.02857 0.05125,0.0616 0.0918,0.08984 0.342793,0.238754 0.754967,0.459326 1.253907,0.669921 0.49632,0.2095 1.067037,0.413043 1.71875,0.613282 h 0.002 l 0.0039,0.002 c 1.088897,0.326611 2.049177,0.695488 2.873047,1.103515 h 0.002 l 0.002,0.002 c 0.833068,0.408488 1.532842,0.868401 2.091797,1.376953 0.562009,0.511353 0.97946,1.082847 1.265625,1.732422 0.285803,0.648793 0.427734,1.377813 0.427734,2.197265 0,0.866629 -0.167871,1.633412 -0.509765,2.320313 -0.342284,0.687627 -0.826173,1.258392 -1.472656,1.734375 -0.644012,0.474139 -1.410096,0.832421 -2.300782,1.078125 -0.890101,0.24552 -1.887764,0.36914 -2.988281,0.36914 -0.991851,0 -1.96737,-0.128123 -2.931641,-0.382812 h -0.002 C 30.35297,46.343273 29.480529,45.948838 28.689511,45.42006 27.904952,44.889497 27.287174,44.223751 26.816464,43.400529 26.344828,42.5756 26.113339,41.613049 26.113339,40.492325 h 4.144531 c 0,0.624823 0.09691,1.139718 0.291016,1.570313 0.187415,0.415795 0.469171,0.775618 0.804688,1.03125 l 0.0078,0.0059 0.0078,0.0059 c 0.352151,0.257769 0.776162,0.449527 1.255859,0.566406 h 0.002 l 0.0039,0.002 c 0.495256,0.117935 1.033956,0.175781 1.621094,0.175781 0.724689,0 1.28724,-0.0938 1.755859,-0.296875 0.0021,-9.15e-4 0.0057,-10e-4 0.0078,-0.002 0.462192,-0.197733 0.824471,-0.500891 1.03125,-0.833984 0.217114,-0.335705 0.345703,-0.77317 0.345703,-1.201172 0,-0.237819 -0.06178,-0.435331 -0.111328,-0.640625 V 40.720703 L 37.226562,40.5625 v -0.002 c -0.09364,-0.270373 -0.296803,-0.556273 -0.576171,-0.789063 l -0.002,-0.002 C 36.351858,39.513603 35.975439,39.288197 35.451172,39.046875 34.933953,38.808815 34.27989,38.567034 33.464844,38.3125 l -0.01172,-0.0039 c -0.90882,-0.291128 -1.77085,-0.618473 -2.587891,-0.982422 l -0.0039,-0.002 C 30.056099,36.961026 29.341505,36.539396 28.71875,36.058594 l -0.002,-0.002 c -0.615446,-0.49156 -1.09777,-1.054334 -1.457031,-1.701172 l 0.117187,0.210937 v 0.0078 l -0.121094,-0.222657 v -0.002 c -0.351072,-0.650798 -0.523437,-1.393588 -0.523437,-2.25 0,-0.831824 0.181036,-1.571186 0.550781,-2.25 l 0.002,-0.002 v -0.002 c 0.368827,-0.684728 0.877112,-1.260595 1.539063,-1.744141 l 0.002,-0.002 0.0039,-0.002 c 0.661736,-0.491261 1.439136,-0.86726 2.337891,-1.130859 0.909332,-0.26399 1.905175,-0.394531 2.988281,-0.394531 z M 13.761719,26.84375 h 1.017578 1.777344 1.046875 L 25.09375,46.716797 H 20.6875 l -1.390625,-4.191406 h -7.205078 l -1.388672,4.191406 H 6.3105469 Z m 30.570312,0 h 0.458985 1.427734 1.597656 0.957031 0.94336 l 5.15039,14.589844 5.150391,-14.589844 h 0.943359 0.957032 1.597656 1.427734 0.472657 v 19.873047 h -4.13086 v -5.650391 l 0.121094,-2.730469 -1.939453,-0.386718 -3.195313,8.767578 h -2.808593 l -3.195313,-8.767578 -1.939453,0.386718 0.121094,2.730469 v 5.650391 h -4.117188 z m -28.642578,4.8125 -0.947265,2.863281 -1.589844,4.798828 h 5.080078 z m 18.398438,0.06836 c 0.521511,0 0.801228,0.0942 0.916015,0.154297 l 0.01367,0.0059 c 0.186728,0.09597 0.214814,0.143772 0.253906,0.216796 l 0.0098,0.02148 0.01367,0.02148 c 0.05736,0.101049 0.111328,0.243811 0.111328,0.541016 v 0.464844 c -0.582888,-0.180278 -1.084247,-0.36101 -1.492188,-0.533204 -0.400259,-0.168943 -0.692711,-0.331671 -0.886718,-0.466796 -0.107219,-0.07467 -0.110758,-0.09097 -0.142578,-0.125 l 0.01172,-0.01953 c -0.0018,0.0021 0.0063,-0.03673 0.203125,-0.123047 l 0.01563,-0.0059 0.01367,-0.0059 c 0.13402,-0.06131 0.439951,-0.146485 0.958985,-0.146485 z m 4.986328,2.960938 h 2.435547 0.822265 v 2.984375 c -0.350648,-0.555724 -0.660982,-1.141169 -1.15625,-1.591797 -0.598042,-0.544115 -1.337463,-0.977463 -2.101562,-1.392578 z m -6.816407,5.304687 c 0.200526,0.06907 0.381672,0.157223 0.585938,0.222657 l 0.0098,0.0039 0.0039,0.002 c 0.767267,0.23921 1.354895,0.45998 1.755859,0.644531 0.410332,0.188878 0.650096,0.352251 0.728516,0.419922 l 0.01172,0.0098 0.01172,0.0098 c 0.0077,0.02091 0.02734,0.07361 0.02734,0.212891 0,0.100597 -0.0026,0.08294 -0.02344,0.115234 l -0.002,0.002 -0.0078,0.01367 -0.0078,0.01172 -0.09375,0.04102 c -0.02049,0.01077 0.013,-0.0057 -0.02734,0.01172 -0.0025,0.0011 5.82e-4,-0.0011 -0.002,0 l -0.01367,0.0059 c -0.111922,0.04882 -0.424448,0.132812 -0.962891,0.132812 -0.45155,0 -0.833015,-0.04489 -1.154297,-0.121093 -0.256114,-0.0624 -0.417263,-0.144558 -0.539062,-0.232422 -0.06868,-0.05325 -0.12077,-0.107813 -0.1875,-0.25586 -0.04409,-0.0978 -0.113282,-0.33267 -0.113282,-0.748047 z"
     id="path2"
     sodipodi:nodetypes="cccccsccscccccccccccccccccccccccccccccccccccccccccscccccccccccccccccccccccccccccccccccccccccccccccccccccccccccccccsccccccccscccccccccccccscccscccccccccccccssccsccccccccccccccccccscccccccccccccccccccccccccccccccccccccccccccccccccccccccccscsscccccccccccccccccccccsccccccccsccscc" />
</svg>
