<?xml version="1.0" encoding="UTF-8" standalone="no"?>
<svg
   width="75"
   height="84"
   viewBox="0 0 75 84"
   fill="none"
   version="1.1"
   id="svg4"
   sodipodi:docname="c++.svg"
   inkscape:version="1.2.2 (732a01da63, 2022-12-09)"
   xmlns:inkscape="http://www.inkscape.org/namespaces/inkscape"
   xmlns:sodipodi="http://sodipodi.sourceforge.net/DTD/sodipodi-0.dtd"
   xmlns="http://www.w3.org/2000/svg"
   xmlns:svg="http://www.w3.org/2000/svg">
  <defs
     id="defs8" />
  <sodipodi:namedview
     id="namedview6"
     pagecolor="#505050"
     bordercolor="#eeeeee"
     borderopacity="1"
     inkscape:showpageshadow="0"
     inkscape:pageopacity="0"
     inkscape:pagecheckerboard="0"
     inkscape:deskcolor="#505050"
     showgrid="false"
     inkscape:zoom="4.9345238"
     inkscape:cx="80.149578"
     inkscape:cy="45.597105"
     inkscape:window-width="1707"
     inkscape:window-height="889"
     inkscape:window-x="-8"
     inkscape:window-y="-8"
     inkscape:window-maximized="1"
     inkscape:current-layer="svg4" />
  <path
     style="color:#000000;fill:#7b3fbf;-inkscape-stroke:none"
     d="M 37.179687,0 C 35.959101,0 34.738802,0.3180893 33.646484,0.95117188 L 3.5332031,18.402344 C 1.3479887,19.668868 0,22.013472 0,24.546875 v 34.90625 c 0,2.533403 1.3479887,4.878007 3.5332031,6.144531 L 33.646484,83.048828 c 2.184634,1.266142 4.881773,1.266142 7.066407,0 L 70.826172,65.597656 c 2.185266,-1.266521 3.535156,-3.611128 3.535156,-6.144531 v -34.90625 c 0,-2.533403 -1.34989,-4.87801 -3.535156,-6.144531 L 40.712891,0.95117188 C 39.620573,0.3180893 38.400274,0 37.179687,0 Z m 0,2 c 0.873262,0 1.74717,0.2272053 2.53125,0.6816406 L 69.824219,20.132812 c 1.568529,0.909078 2.537109,2.58927 2.537109,4.414063 v 14.076172 h -0.410156 -0.753906 v -0.753906 -2 h -2 -2.753907 -2 v 2 0.753906 h -0.753906 -0.410156 -1.589844 -0.410156 -0.753906 v -0.753906 -2 h -2 -2.75586 -2 v 2 0.753906 h -0.753906 -2 v 2 2.753906 2 h 2 0.753906 v 0.753906 2 h 2 2.75586 2 v -2 -0.753906 h 0.753906 0.410156 1.589844 0.410156 0.753906 v 0.753906 2 h 2 2.753907 2 v -2 -0.753906 h 0.753906 0.410156 v 14.076172 c 0,1.824793 -0.96858,3.504985 -2.537109,4.414062 L 39.710937,81.318359 c -1.568162,0.908856 -3.492384,0.908856 -5.060546,0 L 4.5371094,63.867187 C 2.9686275,62.958114 2,61.277918 2,59.453125 V 24.546875 C 2,22.722082 2.9686275,21.041886 4.5371094,20.132812 L 34.650391,2.6816406 C 35.434471,2.2272053 36.306426,2 37.179687,2 Z m 1.480469,12.677734 c -2.961316,-0.161443 -5.949894,0.161923 -8.84375,0.976563 -5.78761,1.62928 -10.874825,5.132846 -14.472656,9.96289 -3.597727,4.829941 -5.5054817,10.717502 -5.4257812,16.746094 0.079804,6.028568 2.1409412,11.863167 5.8652342,16.595703 3.724294,4.732538 8.903676,8.097664 14.732422,9.572266 5.828749,1.474498 11.980042,0.974729 17.496094,-1.421875 5.515952,-2.396502 10.088945,-6.55445 13.005859,-11.826172 L 61.982422,53.539062 60.240234,52.568359 49.0625,46.335937 47.310547,45.357422 46.337891,47.113281 c -1.122467,2.028826 -2.879298,3.626374 -4.998047,4.546875 -2.118633,0.920581 -4.480712,1.11307 -6.71875,0.546875 -2.238138,-0.566196 -4.22755,-1.859226 -5.660157,-3.679687 -1.432594,-1.820446 -2.227113,-4.064938 -2.257812,-6.386719 -0.0307,-2.321778 0.703827,-4.589122 2.087891,-6.447266 1.384069,-1.858059 3.340027,-3.202507 5.5625,-3.828125 2.222346,-0.625699 4.586342,-0.496527 6.728515,0.367188 2.142262,0.863714 3.941493,2.414013 5.117188,4.412109 l 1.017578,1.728516 1.726562,-1.023438 11.009766,-6.527343 1.714844,-1.017579 -1.011719,-1.71875 c -3.055291,-5.192272 -7.735042,-9.225915 -13.3125,-11.474609 -2.788774,-1.124396 -5.722278,-1.77215 -8.683594,-1.933594 z m -0.109375,1.998047 c 2.743253,0.149556 5.461002,0.747261 8.044922,1.789063 5.167731,2.083502 9.505588,5.823401 12.337891,10.636718 l -11.009766,6.527344 c -1.398703,-2.3771 -3.541817,-4.223069 -6.09375,-5.251953 -2.551822,-1.028883 -5.371682,-1.182999 -8.019531,-0.4375 -2.647922,0.745381 -4.976119,2.347657 -6.623047,4.558594 V 34.5 c -1.646933,2.211053 -2.520876,4.905399 -2.484375,7.666016 0.0365,2.760614 0.980744,5.431305 2.685547,7.597656 1.70479,2.166334 4.07553,3.70821 6.742187,4.382812 2.666557,0.674605 5.482097,0.446227 8.00586,-0.65039 2.523846,-1.096497 4.615841,-3.000493 5.951172,-5.414063 l 11.179687,6.232422 c -2.70408,4.887069 -6.941897,8.740445 -12.052734,10.960938 -5.110938,2.220591 -10.808745,2.684458 -16.208985,1.318359 -5.400243,-1.366196 -10.198291,-4.486393 -13.65039,-8.873047 -3.4521,-4.386654 -5.363504,-9.794945 -5.4375,-15.384766 -0.0739,-5.589796 1.694431,-11.046387 5.029297,-15.523437 3.334962,-4.477146 8.049931,-7.722906 13.412109,-9.232422 2.681139,-0.754759 5.448153,-1.053853 8.191406,-0.904297 z m 17.21875,21.19336 h 2.75586 v 2.753906 h 2.753906 v 2.753906 h -2.753906 v 2.753906 h -2.75586 v -2.753906 h -2.753906 v -2.753906 h 2.753906 z m 10.673828,0 h 2.753907 v 2.753906 h 2.753906 v 2.753906 h -2.753906 v 2.753906 h -2.753907 v -2.753906 h -2.753906 v -2.753906 h 2.753906 z"
     id="path2" />
</svg>
