<?xml version="1.0" encoding="UTF-8" standalone="no"?>
<svg
   width="75"
   height="84"
   viewBox="0 0 75 84"
   fill="none"
   version="1.1"
   id="svg4"
   sodipodi:docname="c.svg"
   inkscape:version="1.2.2 (732a01da63, 2022-12-09)"
   xmlns:inkscape="http://www.inkscape.org/namespaces/inkscape"
   xmlns:sodipodi="http://sodipodi.sourceforge.net/DTD/sodipodi-0.dtd"
   xmlns="http://www.w3.org/2000/svg"
   xmlns:svg="http://www.w3.org/2000/svg">
  <defs
     id="defs8" />
  <sodipodi:namedview
     id="namedview6"
     pagecolor="#505050"
     bordercolor="#eeeeee"
     borderopacity="1"
     inkscape:showpageshadow="0"
     inkscape:pageopacity="0"
     inkscape:pagecheckerboard="0"
     inkscape:deskcolor="#505050"
     showgrid="false"
     inkscape:zoom="2.4672619"
     inkscape:cx="75.995175"
     inkscape:cy="60.79614"
     inkscape:window-width="1707"
     inkscape:window-height="889"
     inkscape:window-x="-8"
     inkscape:window-y="-8"
     inkscape:window-maximized="1"
     inkscape:current-layer="svg4" />
  <path
     style="color:#000000;fill:#7b3fbf;-inkscape-stroke:none"
     d="M 37.324219,0 C 36.09906,-2.1805605e-7 34.874145,0.31794742 33.777344,0.95117188 L 3.546875,18.404297 C 1.3532764,19.670732 0,22.014007 0,24.546875 v 34.90625 c 0,2.532871 1.3532881,4.876143 3.546875,6.142578 l 30.230469,17.453125 c 2.193606,1.266536 4.900223,1.266557 7.09375,0 L 71.099609,65.595703 c 2.193637,-1.266436 3.546875,-3.609725 3.546875,-6.142578 v -34.90625 c 0,-2.532853 -1.353238,-4.876142 -3.546875,-6.142578 L 40.871094,0.95117188 C 39.774333,0.31793681 38.549377,2.1805605e-7 37.324219,0 Z m 0,2 c 0.879164,-2e-7 1.758138,0.2262488 2.546875,0.6816406 L 70.099609,20.134766 c 1.57756,0.910761 2.546875,2.590566 2.546875,4.412109 v 34.90625 c 0,1.821543 -0.969315,3.501348 -2.546875,4.412109 L 39.871094,81.318359 c -1.577469,0.910841 -3.516161,0.910863 -5.09375,0 L 4.546875,63.865234 C 2.9693457,62.954471 2,61.274649 2,59.453125 V 24.546875 C 2,22.725348 2.9693374,21.045529 4.546875,20.134766 L 34.777344,2.6816406 C 35.566141,2.2262382 36.445055,2.0000002 37.324219,2 Z m 1.482422,12.677734 c -2.971095,-0.161361 -5.967653,0.162325 -8.871094,0.976563 -5.806871,1.628473 -10.913792,5.131045 -14.525391,9.960937 -3.611594,4.829991 -5.5253347,10.717612 -5.4453122,16.748047 0.080126,6.030319 2.1501242,11.865311 5.8886722,16.597656 3.738535,4.732434 8.935237,8.098443 14.783203,9.572266 5.848071,1.47372 12.019941,0.973616 17.554687,-1.421875 5.53484,-2.395486 10.124293,-6.553938 13.052735,-11.826172 l 0.970703,-1.748047 -1.748047,-0.970703 -11.222656,-6.232422 -1.748047,-0.970703 -0.970703,1.748047 c -1.126658,2.028367 -2.892127,3.627218 -5.021485,4.548828 -2.12936,0.921612 -4.50203,1.113854 -6.751953,0.546875 -2.249849,-0.567074 -4.249253,-1.861 -5.6875,-3.68164 -1.438233,-1.820533 -2.234847,-4.064805 -2.265625,-6.384766 -0.03087,-2.320015 0.706284,-4.585138 2.095703,-6.443359 1.389502,-1.858211 3.351908,-3.205506 5.585938,-3.832032 2.234037,-0.626436 4.612509,-0.497529 6.765625,0.367188 2.153016,0.864805 3.96054,2.416293 5.140625,4.414062 l 1.017578,1.722657 1.720703,-1.017579 11.052734,-6.529296 1.722657,-1.015625 -1.017579,-1.722657 C 57.815593,22.891341 53.117882,18.857068 47.521484,16.609375 44.723288,15.485478 41.777735,14.839096 38.806641,14.677734 Z m -0.107422,1.998047 c 2.75385,0.149563 5.482373,0.747262 8.076172,1.789063 5.187591,2.083503 9.541591,5.823372 12.384765,10.636718 l -11.052734,6.527344 c -1.404113,-2.377026 -3.553455,-4.22296 -6.115235,-5.251953 -2.561879,-1.028881 -5.392622,-1.182862 -8.050781,-0.4375 -2.658165,0.745473 -4.995142,2.349561 -6.648437,4.560547 -1.653178,2.210974 -2.530872,4.905435 -2.494141,7.666016 0.03662,2.760434 0.983949,5.431393 2.695313,7.597656 1.71135,2.166355 4.090631,3.708088 6.767578,4.382812 2.677072,0.67462 5.503474,0.446196 8.037109,-0.65039 2.533638,-1.096588 4.634069,-3.000634 5.974609,-5.414063 l 11.220704,6.232422 C 56.779588,59.20161 52.527034,63.054882 47.396484,65.275391 42.266041,67.495895 36.545918,67.959827 31.125,66.59375 25.704177,65.227576 20.887332,62.10746 17.421875,57.720703 13.95643,53.334058 12.037164,47.925807 11.962891,42.335937 11.888713,36.745984 13.66392,31.2897 17.011719,26.8125 c 3.347794,-4.477098 8.080172,-7.722898 13.46289,-9.232422 2.691354,-0.75476 5.47076,-1.05386 8.22461,-0.904297 z"
     id="path2" />
</svg>
