<?xml version="1.0" encoding="UTF-8" standalone="no"?>
<svg
   width="50"
   height="50"
   viewBox="0 0 50 50"
   fill="none"
   version="1.1"
   id="svg4"
   sodipodi:docname="github.svg"
   inkscape:version="1.2.2 (732a01da63, 2022-12-09)"
   xmlns:inkscape="http://www.inkscape.org/namespaces/inkscape"
   xmlns:sodipodi="http://sodipodi.sourceforge.net/DTD/sodipodi-0.dtd"
   xmlns="http://www.w3.org/2000/svg"
   xmlns:svg="http://www.w3.org/2000/svg">
  <defs
     id="defs8" />
  <sodipodi:namedview
     id="namedview6"
     pagecolor="#505050"
     bordercolor="#eeeeee"
     borderopacity="1"
     inkscape:showpageshadow="0"
     inkscape:pageopacity="0"
     inkscape:pagecheckerboard="0"
     inkscape:deskcolor="#505050"
     showgrid="false"
     inkscape:zoom="8.29"
     inkscape:cx="62.002413"
     inkscape:cy="38.238842"
     inkscape:window-width="1920"
     inkscape:window-height="1009"
     inkscape:window-x="2552"
     inkscape:window-y="350"
     inkscape:window-maximized="1"
     inkscape:current-layer="svg4" />
  <path
     style="color:#000000;fill:#ea67ff;-inkscape-stroke:none"
     d="M 6.625,0.5 C 3.248183,0.5 0.5,3.248183 0.5,6.625 v 36.75 c 0,3.376817 2.748183,6.125 6.125,6.125 h 36.75 c 3.376817,0 6.125,-2.748183 6.125,-6.125 V 6.625 C 49.5,3.248183 46.751817,0.5 43.375,0.5 Z m 0,1 h 36.75 c 2.836377,0 5.125,2.2886232 5.125,5.125 v 36.75 c 0,2.836377 -2.288623,5.125 -5.125,5.125 H 6.625 C 3.7886232,48.5 1.5,46.211377 1.5,43.375 V 6.625 C 1.5,3.7886232 3.7886232,1.5 6.625,1.5 Z M 7.1875,2 C 4.3284517,2 2,4.3284517 2,7.1875 v 35.625 C 2,45.671521 4.3284478,48 7.1875,48 h 35.625 C 45.671525,48 48,45.671525 48,42.8125 V 7.1875 C 48,4.3284478 45.671521,2 42.8125,2 Z m 0,1 h 35.625 C 45.131073,3 47,4.8688973 47,7.1875 v 35.625 C 47,45.13107 45.13107,47 42.8125,47 h -9.90625 v -9.882813 c 0,-1.263954 -0.690651,-2.29546 -1.494141,-3.050781 -0.293268,-0.275687 -0.563968,-0.345386 -0.871093,-0.554687 h 0.568359 c 1.894858,0 5.255469,-0.312869 7.679687,-2.507813 2.803231,-2.538098 3.878327,-6.216653 3.945313,-8.02539 0.110076,-2.974085 -0.349817,-4.752057 -1.384766,-6.248047 C 40.627203,15.68625 40.013153,15.12706 39.611328,14.794922 39.95107,11.348528 39.88629,9.6596468 39.251953,7.7773437 l -0.126953,-0.375 -0.394531,0.037109 C 35.633507,7.7396125 33.750368,8.6634345 30.759766,10.787109 H 20.460937 C 17.470291,8.6633998 15.587121,7.7396149 12.490234,7.4394531 l -0.394531,-0.037109 -0.126953,0.375 C 11.334413,9.6596478 11.269632,11.348524 11.609375,14.794922 11.20755,15.12706 10.5935,15.68625 9.8710938,16.730469 8.8361343,18.22646 8.3762523,20.004431 8.4863281,22.978516 c 0.066942,1.808746 1.1400229,5.487291 3.9433599,8.02539 2.424218,2.194944 5.784829,2.507813 7.679687,2.507813 h 0.570312 c -0.307125,0.209301 -0.577825,0.279 -0.871093,0.554687 -0.780206,0.733433 -1.430359,1.736859 -1.46875,2.951172 -0.749027,0.07317 -1.602295,0.15611 -2.185547,-0.04687 -1.117971,-0.389129 -1.690673,-1.056896 -2.25,-1.876953 -0.559327,-0.820057 -1.069007,-1.798922 -2.027344,-2.578125 -1.012444,-0.823229 -2.0041386,-1.179562 -2.8417967,-1.160156 -0.8376582,0.01941 -1.5773982,0.48057 -1.7421876,1.222656 -0.071266,0.32093 -0.050449,0.641237 0.058594,0.910156 0.1090431,0.268919 0.2857357,0.473327 0.46875,0.652344 0.3660287,0.358034 0.7875595,0.65183 1.1992188,1.138672 1.1138057,1.317242 1.6446387,2.956775 2.9609377,4.154297 1.62941,1.482357 3.646307,1.751953 5.845703,1.751953 h 0.488281 V 47 H 7.1875 C 4.8688973,47 3,45.131073 3,42.8125 V 7.1875 C 3,4.8688935 4.8688935,3 7.1875,3 Z m 5.644531,5.5410156 c 2.692475,0.3313014 4.327351,1.0964642 7.203125,3.1542974 l 0.13086,0.0918 h 10.888671 l 0.13086,-0.0918 c 2.875864,-2.0578969 4.51043,-2.8230149 7.203125,-3.1542974 0.475192,1.6080444 0.552252,3.0666314 0.214844,6.3710934 l -0.02734,0.28125 0.224609,0.169922 c 0.207902,0.155999 0.980564,0.859179 1.726563,1.9375 0.909049,1.314007 1.312955,2.778716 1.207031,5.640625 -0.05301,1.43146 -1.08547,5.031769 -3.615234,7.322266 -2.111777,1.912052 -5.232628,2.248047 -7.009766,2.248047 h -2.267578 l -0.183594,0.964843 c 0.532982,0.210142 1.386851,0.677707 2.068359,1.31836 0.681509,0.640652 1.179688,1.424723 1.179688,2.322265 V 47 H 19.314453 v -6.814453 h -1.488281 c -2.1206,0 -3.798489,-0.242748 -5.171875,-1.492188 C 11.594598,37.729283 11.045415,36.125568 9.7832031,34.632812 9.2852833,34.043956 8.790107,33.690447 8.5195313,33.425781 8.3842434,33.293448 8.3116318,33.193025 8.2792969,33.113281 c -0.032335,-0.07974 -0.046499,-0.152939 -0.00977,-0.318359 0.05121,-0.230613 0.2616245,-0.427234 0.7890625,-0.439453 0.5274379,-0.01222 1.3163162,0.227178 2.1875002,0.935547 0.769662,0.625795 1.232312,1.483093 1.833984,2.365234 0.601672,0.882141 1.380067,1.782343 2.746094,2.257812 1.030331,0.358579 2.210551,0.202854 3.046875,0.103516 l 0.441406,-0.05273 v -0.847657 c 0,-0.897542 0.496226,-1.681613 1.177734,-2.322265 0.681509,-0.640653 1.535378,-1.108218 2.06836,-1.31836 l -0.183594,-0.964843 h -2.267578 c -1.777138,0 -4.896036,-0.335995 -7.007812,-2.248047 -2.529859,-2.290496 -3.5622568,-5.890815 -3.6152349,-7.322266 -0.105924,-2.861909 0.2979726,-4.326618 1.2070309,-5.640625 0.745999,-1.078321 1.516708,-1.781501 1.72461,-1.9375 l 0.226562,-0.169922 -0.0293,-0.28125 c -0.337412,-3.3045 -0.258411,-4.763027 0.216797,-6.3710934 z"
     id="path2" />
</svg>
