<?xml version="1.0" encoding="UTF-8" standalone="no"?>
<svg
   width="64"
   height="71"
   viewBox="0 0 64 71"
   fill="none"
   version="1.1"
   id="svg8"
   sodipodi:docname="html.svg"
   inkscape:version="1.2.2 (732a01da63, 2022-12-09)"
   xmlns:inkscape="http://www.inkscape.org/namespaces/inkscape"
   xmlns:sodipodi="http://sodipodi.sourceforge.net/DTD/sodipodi-0.dtd"
   xmlns="http://www.w3.org/2000/svg"
   xmlns:svg="http://www.w3.org/2000/svg">
  <defs
     id="defs12" />
  <sodipodi:namedview
     id="namedview10"
     pagecolor="#505050"
     bordercolor="#eeeeee"
     borderopacity="1"
     inkscape:showpageshadow="0"
     inkscape:pageopacity="0"
     inkscape:pagecheckerboard="0"
     inkscape:deskcolor="#505050"
     showgrid="false"
     inkscape:zoom="4.1281093"
     inkscape:cx="49.296175"
     inkscape:cy="27.857789"
     inkscape:window-width="1707"
     inkscape:window-height="889"
     inkscape:window-x="-8"
     inkscape:window-y="-8"
     inkscape:window-maximized="1"
     inkscape:current-layer="svg8" />
  <path
     style="color:#000000;fill:#7b3fbf;-inkscape-stroke:none"
     d="M 0.90625,0 6.5507812,62.691406 32,70.041016 57.449219,62.691406 63.09375,0 H 62 Z m 2.1875,2 h 57.8125 L 55.580078,61.150391 32,67.958984 8.4199219,61.150391 Z"
     id="path2" />
  <path
     style="color:#000000;fill:#7b3fbf;-inkscape-stroke:none"
     d="m 11.876953,12.390625 2.238281,24.716797 h 25.554688 l -0.5625,7.90039 -7.259766,2.433594 -6.984375,-2.435547 -0.716797,-6.113281 h -9.86914 l 1.271484,14.037109 16.623047,4.773438 16.623047,-4.773438 2.267578,-25.037109 -27.919922,-0.345703 -0.503906,-5.578125 28.945312,0.171875 0.882813,-9.75 h -1.095703 z m 2.189453,2 H 50.277344 L 49.757812,20.128906 20.447266,19.957031 21.314453,29.523437 48.875,29.865234 46.925781,51.386719 32.171875,55.623047 17.416016,51.386719 16.466797,40.892578 h 5.90039 l 0.65625,5.589844 8.8125,3.072265 9.171875,-3.074218 0.808594,-11.373047 h -25.875 z"
     id="path4" />
  <path
     style="color:#000000;fill:#7b3fbf;-inkscape-stroke:none"
     d="m 31.152344,5.5078125 v 1 59.1699215 L 53.337891,58.957031 57.927734,5.5078125 Z m 2,2 H 55.748047 L 51.460937,57.4375 33.152344,62.982422 Z"
     id="path6" />
</svg>
