<?xml version="1.0" encoding="UTF-8" standalone="no"?>
<svg
   width="64"
   height="71"
   viewBox="0 0 64 71"
   fill="none"
   version="1.1"
   id="svg10"
   sodipodi:docname="js.svg"
   inkscape:version="1.2.2 (732a01da63, 2022-12-09)"
   xmlns:inkscape="http://www.inkscape.org/namespaces/inkscape"
   xmlns:sodipodi="http://sodipodi.sourceforge.net/DTD/sodipodi-0.dtd"
   xmlns="http://www.w3.org/2000/svg"
   xmlns:svg="http://www.w3.org/2000/svg">
  <defs
     id="defs14" />
  <sodipodi:namedview
     id="namedview12"
     pagecolor="#505050"
     bordercolor="#eeeeee"
     borderopacity="1"
     inkscape:showpageshadow="0"
     inkscape:pageopacity="0"
     inkscape:pagecheckerboard="0"
     inkscape:deskcolor="#505050"
     showgrid="false"
     inkscape:zoom="2.9190141"
     inkscape:cx="120.41737"
     inkscape:cy="25.008444"
     inkscape:window-width="1707"
     inkscape:window-height="889"
     inkscape:window-x="-8"
     inkscape:window-y="-8"
     inkscape:window-maximized="1"
     inkscape:current-layer="svg10" />
  <path
     style="color:#000000;fill:#7b3fbf;-inkscape-stroke:none"
     d="M 0.90625,0 6.5507812,62.691406 32,70.041016 57.449219,62.691406 63.09375,0 H 62 Z m 2.1875,2 h 57.8125 L 55.580078,61.150391 32,67.958984 8.4199219,61.150391 Z"
     id="path2" />
  <path
     style="color:#000000;fill:#7b3fbf;-inkscape-stroke:none"
     d="m 33.585937,12.390625 -0.375,26.998047 10.556641,-2.052735 -0.546875,7.679688 -9.992187,3.458984 v 8.546875 l 15.570312,-4.074218 1.955078,-23.820313 -9.314453,1.039063 0.269531,-8.185547 9.873047,0.169922 0.884766,-9.759766 h -1.095703 z m 1.972657,2 h 14.716797 l -0.517579,5.728516 -9.982421,-0.173829 -0.414063,12.464844 9.199219,-1.02539 -1.638672,19.986328 -11.693359,3.058593 v -4.53125 l 9.892578,-3.425781 0.826172,-11.595703 -10.701172,2.078125 z"
     id="path4" />
  <path
     style="color:#000000;fill:#7b3fbf;-inkscape-stroke:none"
     d="m 31.152344,5.5078125 v 1 59.1699215 L 53.337891,58.957031 57.927734,5.5078125 Z m 2,2 H 55.748047 L 51.460937,57.4375 33.152344,62.982422 Z"
     id="path6" />
  <path
     style="color:#000000;fill:#7b3fbf;-inkscape-stroke:none"
     d="M 21.572266,12.390625 V 45.775391 L 11.142578,42.634766 12.044922,51.6875 30.085937,56.697266 V 55.380859 12.390625 Z m 2,2 h 4.513671 v 39.675781 l -14.187499,-3.939453 -0.46875,-4.714844 10.142578,3.054688 z"
     id="path8" />
</svg>
