<?xml version="1.0" encoding="UTF-8" standalone="no"?>
<svg
   width="52"
   height="52"
   viewBox="0 0 52 52"
   fill="none"
   version="1.1"
   id="svg262"
   sodipodi:docname="linkedin.svg"
   inkscape:version="1.2.2 (732a01da63, 2022-12-09)"
   xmlns:inkscape="http://www.inkscape.org/namespaces/inkscape"
   xmlns:sodipodi="http://sodipodi.sourceforge.net/DTD/sodipodi-0.dtd"
   xmlns="http://www.w3.org/2000/svg"
   xmlns:svg="http://www.w3.org/2000/svg">
  <defs
     id="defs266" />
  <sodipodi:namedview
     id="namedview264"
     pagecolor="#505050"
     bordercolor="#eeeeee"
     borderopacity="1"
     inkscape:showpageshadow="0"
     inkscape:pageopacity="0"
     inkscape:pagecheckerboard="0"
     inkscape:deskcolor="#505050"
     showgrid="false"
     showguides="true"
     inkscape:zoom="11.313709"
     inkscape:cx="37.476659"
     inkscape:cy="27.577164"
     inkscape:window-width="1920"
     inkscape:window-height="1009"
     inkscape:window-x="2552"
     inkscape:window-y="350"
     inkscape:window-maximized="1"
     inkscape:current-layer="svg262">
    <sodipodi:guide
       position="20.75,7.8750001"
       orientation="0,-1"
       id="guide522"
       inkscape:locked="false" />
    <sodipodi:guide
       position="37.4375,27.8125"
       orientation="0,-1"
       id="guide585"
       inkscape:locked="false" />
  </sodipodi:namedview>
  <path
     style="color:#000000;fill:#ea67ff;-inkscape-stroke:none"
     d="M 7.625,0 C 3.4256753,0 0,3.4256753 0,7.625 v 36.75 C 0,48.574333 3.4256771,52 7.625,52 h 36.75 C 48.574331,52 52,48.574331 52,44.375 V 7.625 C 52,3.4256771 48.574333,0 44.375,0 Z m 0,2 h 36.75 C 47.493459,2 50,4.5065502 50,7.625 v 36.75 C 50,47.493461 47.493461,50 44.375,50 H 7.625 C 4.5065502,50 2,47.493459 2,44.375 V 7.625 C 2,4.5065521 4.5065521,2 7.625,2 Z M 8.1875,3.5 C 5.6105125,3.5 3.5,5.6105125 3.5,8.1875 v 35.625 C 3.5,46.389451 5.6104961,48.5 8.1875,48.5 h 35.625 C 46.389467,48.5 48.5,46.389467 48.5,43.8125 V 8.1875 C 48.5,5.6104961 46.389451,3.5 43.8125,3.5 Z m 0,2 h 35.625 C 45.308545,5.5 46.5,6.691408 46.5,8.1875 v 35.625 C 46.5,45.308529 45.308529,46.5 43.8125,46.5 H 8.1875 C 6.691408,46.5 5.5,45.308545 5.5,43.8125 V 8.1875 C 5.5,6.6913916 6.6913916,5.5 8.1875,5.5 Z m 4.443359,0.6875 c -1.54655,0 -3.0219558,0.4664029 -4.1562496,1.5058594 -6.787e-4,6.219e-4 -0.00127,0.00133 -0.00195,0.00195 C 7.3410838,8.7180528 6.75,10.137982 6.75,11.654297 c 0,0.782734 0.1736006,1.531407 0.4824219,2.220703 H 6.546875 l 1.9199219,1.734375 0.015625,0.01563 h 0.00195 c 0.1496401,0.134482 0.3452832,0.179897 0.5058594,0.294922 H 7.1738281 v 2 24.205078 2 h 2 6.9804689 2 v -2 -24.205078 -2 h -1.882813 c 0.159716,-0.114427 0.355009,-0.159292 0.503907,-0.292969 l 0.0039,-0.002 c 1.13706,-1.02427 1.753906,-2.443704 1.753906,-3.970703 0,-1.527194 -0.609939,-2.9507139 -1.757812,-3.9687501 C 15.642586,6.6532037 14.172333,6.1875 12.630859,6.1875 Z m 0,2 c 1.16359,0 2.0727,0.3103302 2.802735,0.9785156 l 0.0059,0.00586 0.0078,0.00586 c 0.747592,0.6612036 1.085937,1.4397786 1.085937,2.4765626 0,1.024787 -0.343201,1.807151 -1.091797,2.482422 -7.39e-4,6.66e-4 -0.0012,0.0013 -0.002,0.002 -0.730398,0.656403 -1.643137,0.960937 -2.808594,0.960937 -1.164374,0 -2.078546,-0.303845 -2.8085934,-0.958984 l -0.00195,-0.002 -0.00586,-0.0059 C 9.0842556,13.458505 8.75,12.675181 8.75,11.654297 8.75,10.618021 9.0820424,9.8373857 9.8164063,9.1757813 l 0.00391,-0.00391 0.00391,-0.00391 C 10.554813,8.4977754 11.465738,8.1875 12.630859,8.1875 Z m 22.076172,7.285156 c -1.657313,0 -3.233155,0.322279 -4.675781,0.990235 l -0.0078,0.0039 c -0.192589,0.09033 -0.351541,0.232384 -0.537109,0.333984 l -0.07227,-0.880859 h -1.841796 -6.556641 -2 v 2 24.205078 2 h 2 6.980469 1.617187 v -2 -15.882813 l 5.783203,-0.04297 c 0.09167,7.487392 0.204214,15.272941 0.216797,16.845703 l 0.0078,0.96875 0.96875,0.02344 c 0,0 3.733335,0.08952 6.378906,0.06836 l 1.001953,-0.0078 -0.236328,-21.986328 c -0.03,-1.79239 -1.218839,-3.044204 -2.050781,-3.917969 -3.76e-4,-4.09e-4 -0.0016,4.09e-4 -0.002,0 -0.886338,-0.964986 -1.975705,-1.683769 -3.212891,-2.117187 -1.175016,-0.411617 -2.437752,-0.603516 -3.761719,-0.603516 z m 0,2 c 1.130231,0 2.163581,0.161652 3.101563,0.490235 0.939687,0.329197 1.730286,0.850038 2.402343,1.582031 l 0.0059,0.0078 0.0059,0.0059 c 0.794408,0.834352 1.497228,1.720159 1.511719,2.585937 h 0.002 l 0.212891,19.949219 c -1.945368,-0.0063 -3.641131,-0.03128 -4.347657,-0.04687 -0.02392,-2.275296 -0.129701,-9.395976 -0.21875,-16.869141 l -0.01367,-0.99414 -9.75586,0.07227 V 42.125 H 21.015625 V 17.919922 h 6.556641 l 0.02148,0.273437 0.185547,2.265625 1.466797,-1.171875 c 0.499991,-0.39912 1.041059,-0.735749 1.625,-1.009765 h 0.002 c 1.163772,-0.538843 2.4335,-0.804688 3.833984,-0.804688 z M 9.1738281,17.919922 H 16.154297 V 42.125 H 9.1738281 Z"
     id="path260" />
</svg>
