<svg width="53" height="53" viewBox="0 0 53 53" fill="none" xmlns="http://www.w3.org/2000/svg">
<path d="M44.1667 46.375H8.83333C7.6137 46.375 6.625 45.3863 6.625 44.1667V8.83333C6.625 7.61371 7.6137 6.625 8.83333 6.625H35.454C36.08 6.625 36.6766 6.89071 37.0954 7.35604L45.8081 17.0368C46.1731 17.4423 46.375 17.9685 46.375 18.5141V44.1667C46.375 45.3863 45.3863 46.375 44.1667 46.375Z" stroke-width="2" stroke-linecap="round" stroke-linejoin="round"/>
<path d="M15.4583 33.125C15.4583 31.9054 16.447 30.9167 17.6666 30.9167H35.3333C36.5529 30.9167 37.5416 31.9054 37.5416 33.125V46.375H15.4583V33.125Z" stroke-width="2" stroke-linecap="round" stroke-linejoin="round"/>
<path d="M33.125 15.4583H19.875" stroke-width="2" stroke-linecap="round" stroke-linejoin="round"/>
</svg>
