<?xml version="1.0" encoding="UTF-8" standalone="no"?>
<svg
   width="53"
   height="53"
   viewBox="0 0 53 53"
   fill="none"
   version="1.1"
   id="svg8"
   sodipodi:docname="save.svg"
   inkscape:version="1.2.2 (732a01da63, 2022-12-09)"
   xmlns:inkscape="http://www.inkscape.org/namespaces/inkscape"
   xmlns:sodipodi="http://sodipodi.sourceforge.net/DTD/sodipodi-0.dtd"
   xmlns="http://www.w3.org/2000/svg"
   xmlns:svg="http://www.w3.org/2000/svg">
  <defs
     id="defs12" />
  <sodipodi:namedview
     id="namedview10"
     pagecolor="#505050"
     bordercolor="#eeeeee"
     borderopacity="1"
     inkscape:showpageshadow="0"
     inkscape:pageopacity="0"
     inkscape:pagecheckerboard="0"
     inkscape:deskcolor="#505050"
     showgrid="false"
     inkscape:zoom="3.9103774"
     inkscape:cx="87.331725"
     inkscape:cy="9.973462"
     inkscape:window-width="1707"
     inkscape:window-height="889"
     inkscape:window-x="-8"
     inkscape:window-y="-8"
     inkscape:window-maximized="1"
     inkscape:current-layer="svg8" />
  <path
     style="color:#000000;fill:#7b3fbf;stroke-linecap:round;stroke-linejoin:round;-inkscape-stroke:none"
     d="M 8.8339844,5.625 C 7.0739135,5.625 5.625,7.0739246 5.625,8.8339844 V 44.166016 c 0,1.760048 1.448919,3.208984 3.2089844,3.208984 H 44.166016 c 1.760048,0 3.208984,-1.448936 3.208984,-3.208984 V 18.513672 c 0,-0.7923 -0.294105,-1.55755 -0.824219,-2.146485 L 37.837891,6.6875 C 37.229814,6.0118644 36.362095,5.625 35.453125,5.625 Z m 0,2 H 35.453125 c 0.343028,0 0.668915,0.1453672 0.898437,0.4003906 l 8.712891,9.6796874 c 0.199886,0.222065 0.310547,0.509695 0.310547,0.808594 v 25.652344 c 0,0.679149 -0.529835,1.208984 -1.208984,1.208984 H 8.8339844 C 8.1547922,45.375 7.625,44.845165 7.625,44.166016 V 8.8339844 C 7.625,8.1548066 8.1547976,7.625 8.8339844,7.625 Z"
     id="path2" />
  <path
     style="color:#000000;fill:#7b3fbf;stroke-linecap:round;stroke-linejoin:round;-inkscape-stroke:none"
     d="m 17.666016,29.916016 c -1.760049,0 -3.207032,1.448935 -3.207032,3.208984 v 13.25 a 1.0001,1.0001 0 0 0 1,1 h 22.082032 a 1.0001,1.0001 0 0 0 1,-1 v -13.25 c 0,-1.760049 -1.446983,-3.208984 -3.207032,-3.208984 z m 0,2 h 17.667968 c 0.679149,0 1.207032,0.529835 1.207032,1.208984 v 12.25 H 16.458984 v -12.25 c 0,-0.679149 0.527883,-1.208984 1.207032,-1.208984 z"
     id="path4" />
  <path
     style="color:#000000;fill:#7b3fbf;stroke-linecap:round;stroke-linejoin:round;-inkscape-stroke:none"
     d="m 19.875,14.458984 a 1,1 0 0 0 -1,1 1,1 0 0 0 1,1 h 13.25 a 1,1 0 0 0 1,-1 1,1 0 0 0 -1,-1 z"
     id="path6" />
</svg>
