<?xml version="1.0" encoding="UTF-8" standalone="no"?>
<svg
   width="67"
   height="67"
   viewBox="0 0 67 67"
   fill="none"
   version="1.1"
   id="svg51"
   sodipodi:docname="ts.svg"
   inkscape:version="1.2.2 (732a01da63, 2022-12-09)"
   xmlns:inkscape="http://www.inkscape.org/namespaces/inkscape"
   xmlns:sodipodi="http://sodipodi.sourceforge.net/DTD/sodipodi-0.dtd"
   xmlns="http://www.w3.org/2000/svg"
   xmlns:svg="http://www.w3.org/2000/svg">
  <defs
     id="defs55" />
  <sodipodi:namedview
     id="namedview53"
     pagecolor="#505050"
     bordercolor="#eeeeee"
     borderopacity="1"
     inkscape:showpageshadow="0"
     inkscape:pageopacity="0"
     inkscape:pagecheckerboard="0"
     inkscape:deskcolor="#505050"
     showgrid="false"
     inkscape:zoom="4"
     inkscape:cx="38.75"
     inkscape:cy="60.5"
     inkscape:window-width="1920"
     inkscape:window-height="1009"
     inkscape:window-x="2552"
     inkscape:window-y="350"
     inkscape:window-maximized="1"
     inkscape:current-layer="svg51" />
  <path
     style="color:#000000;fill:#7b3fbf;-inkscape-stroke:none"
     d="M 0,0 V 1 67 H 67 V 0 Z M 2,2 H 65 V 65 H 2 Z"
     id="rect49" />
  <path
     style="color:#000000;fill:#7b3fbf;-inkscape-stroke:none"
     d="m 50.337891,32.5 c -1.474682,0 -2.873452,0.182581 -4.179688,0.566406 h -0.0039 -0.002 c -1.281727,0.380476 -2.444884,0.941226 -3.455078,1.699219 -7.58e-4,5.6e-4 -0.0012,0.0014 -0.002,0.002 -0.693128,0.512705 -1.153805,1.224618 -1.654296,1.902344 v -1.835938 -2 h -2 -6.462891 -1 -4.980469 -1 -6.347656 -2 v 2 3.927735 2 h 2 5.347656 v 18.404297 2 h 2 4.980469 2 v -2 -18.404297 h 5.462891 0.439453 c -0.01103,0.176946 -0.123047,0.32678 -0.123047,0.505859 0,1.028928 0.03394,1.790809 0.390472,2.709942 l 0.1232,0.340839 0.355468,0.648438 0.0098,0.01953 c 0.564363,1.030449 1.331244,1.929697 2.263672,2.683594 l 0.01172,0.0098 0.01367,0.0098 c 0.892885,0.697993 1.896242,1.295587 3,1.798828 l 0.0039,0.002 0.0039,0.002 c 0.04342,0.01958 0.09311,0.03333 0.136719,0.05273 h -0.04687 -5.015625 -2 v 2 c 0,1.647962 0.34704,3.193544 1.109375,4.542969 0.713196,1.262415 1.683323,2.323696 2.876953,3.140625 l 0.0059,0.0039 0.002,0.002 c 1.141794,0.772368 2.406264,1.346923 3.769532,1.724609 l 0.267578,-1.96289 -0.259766,1.964843 0.0098,0.0039 C 47.721451,61.321389 49.079082,61.5 50.453125,61.5 c 1.482005,0 2.87177,-0.167418 4.154297,-0.525391 1.27802,-0.356886 2.438331,-0.896573 3.439453,-1.642578 1.01693,-0.757721 1.826823,-1.717125 2.380859,-2.84375 C 60.989002,55.347084 61.25,54.085896 61.25,52.765625 c 0,-1.232668 -0.212649,-2.410592 -0.681641,-3.488281 -0.461216,-1.05945 -1.14573,-1.999355 -2.011718,-2.796875 C 57.713309,45.703903 56.70544,45.044015 55.5625,44.476562 55.190501,44.290054 54.708242,44.157065 54.304687,43.986328 h 4.927735 2 v -2 c 0,-1.798167 -0.475323,-3.490217 -1.441406,-4.955078 l -0.002,-0.002 c -0.764505,-1.171689 -1.83649,-2.07152 -3.052734,-2.810547 l 0.05469,-0.113281 -0.900391,-0.435547 -0.900391,-0.4375 -0.05664,0.117187 C 53.517524,32.820806 51.998468,32.5 50.337891,32.5 Z m 0,2 c 1.786164,0 3.340677,0.320339 4.675781,0.966797 0.0013,6.11e-4 0.0026,0.0013 0.0039,0.002 l 0.0039,0.002 c 1.334944,0.647981 2.356525,1.521695 3.09375,2.652344 l 0.002,0.0039 0.002,0.002 c 0.749499,1.134439 1.113281,2.401687 1.113281,3.857422 h -4.962891 c 0,-0.708724 -0.156439,-1.345417 -0.451172,-1.871094 -0.277563,-0.524757 -0.74242,-0.977979 -1.326172,-1.283203 l -0.0059,-0.0039 c -0.590228,-0.312771 -1.324978,-0.46875 -2.232422,-0.46875 -0.65916,0 -1.14513,0.150496 -1.632812,0.302734 l -0.304687,0.09766 -1.527345,1.054687 -0.0059,0.0078 h 0.0039 c -0.102655,0.15554 -0.09484,0.36693 -0.162109,0.546875 l -0.0039,-0.002 v 0.01758 c -0.108979,0.297027 -0.265625,0.576805 -0.265625,0.90039 0,0.357863 0.108696,0.709007 0.265625,1.009766 l 0.237544,0.30017 0.301518,0.31897 c 0.145345,0.140892 0.23904,0.292757 0.427735,0.425782 0.413779,0.291607 0.912755,0.560843 1.515625,0.818359 0.600344,0.256434 1.291559,0.506756 2.080078,0.751953 h 0.0039 l 0.002,0.002 c 1.317898,0.400161 2.479658,0.851746 3.476563,1.351563 h 0.002 l 0.002,0.002 c 1.008354,0.50029 1.854797,1.064601 2.53125,1.6875 0.67961,0.625878 1.18722,1.326345 1.533203,2.121094 0.345408,0.793709 0.515625,1.688076 0.515625,2.691406 0,1.060527 -0.204056,1.999843 -0.617188,2.839844 -0.413562,0.840973 -0.999781,1.540769 -1.78125,2.123047 -0.778876,0.580394 -1.705625,1.019399 -2.783203,1.320312 C 52.991289,59.349455 51.784718,59.5 50.453125,59.5 c -1.200554,0 -2.38161,-0.156496 -3.548828,-0.46875 -1.164816,-0.322706 -2.21891,-0.80442 -3.173828,-1.449219 l -0.002,-0.002 c -0.0012,-8.07e-4 -0.0027,-0.0011 -0.0039,-0.002 h -0.002 c -0.948368,-0.64907 -1.696622,-1.465474 -2.265625,-2.472656 -0.569663,-1.008373 -0.849609,-2.188912 -0.849609,-3.560547 h 5.015625 c 0,0.763686 0.115224,1.395601 0.349609,1.921875 0.22852,0.51289 0.565031,0.950121 0.97461,1.265625 l 0.0078,0.0039 0.0078,0.0059 c 0.42733,0.317078 0.941075,0.553777 1.523437,0.697266 h 0.002 0.002 c 0.599331,0.144505 1.252442,0.216797 1.962891,0.216797 0.875265,0 1.562883,-0.117209 2.126953,-0.365234 l 0.0059,-0.002 c 0.559781,-0.242143 0.992888,-0.602735 1.248047,-1.017578 l 0.002,-0.002 v -0.002 c 0.26652,-0.417942 0.416016,-0.9383 0.416016,-1.46875 0,-0.433075 -0.06762,-0.823573 -0.199219,-1.166016 v -0.0039 l -0.002,-0.002 c -0.117156,-0.340265 -0.359433,-0.680938 -0.699219,-0.966797 -0.354998,-0.310085 -0.817303,-0.592477 -1.449218,-0.886719 -0.626838,-0.291906 -1.41947,-0.587518 -2.410157,-0.90039 l -0.0039,-0.002 c -1.096688,-0.355586 -2.138802,-0.755019 -3.125,-1.199219 l -0.0059,-0.002 -0.002,-0.002 C 45.378169,47.22203 44.511314,46.705459 43.7558,46.114853 v -0.002 c -0.745587,-0.603069 -1.331026,-1.294374 -1.765625,-2.08789 l 0.355469,0.648437 -0.0059,0.0059 -0.34961,-0.654296 c -0.424728,-0.795972 -0.632812,-1.708879 -0.632812,-2.757813 0,-1.017644 0.219302,-1.924041 0.666015,-2.753906 v -0.0039 l 0.002,-0.002 c 0.445925,-0.837927 1.060646,-1.542888 1.861328,-2.134765 l 0.0039,-0.002 0.002,-0.002 c 0.799422,-0.60074 1.740539,-1.060046 2.826172,-1.382813 l 0.002,-0.002 h 0.002 C 47.822618,34.661161 49.027575,34.5 50.337891,34.5 Z M 19.25,34.833984 h 6.347656 1 4.980469 1 6.462891 v 3.927735 H 31.578125 V 59.166016 H 26.597656 V 38.761719 H 19.25 Z m 31.003906,5.525391 c 0.674755,0 1.079551,0.122199 1.294922,0.236328 l 0.01172,0.0059 h 0.002 c 0.287961,0.149788 0.397287,0.277188 0.488281,0.449219 l 0.01172,0.01953 0.01172,0.02344 c 0.111867,0.199523 0.195312,0.461583 0.195312,0.892578 v 1.205078 C 52.091948,43.133899 51.959644,43.055394 51.777344,43 l -0.0059,-0.002 c -0.734149,-0.228493 -1.361408,-0.455854 -1.880859,-0.677735 -0.50353,-0.215083 -0.884771,-0.428041 -1.150391,-0.615234 -0.231863,-0.163458 -0.329415,-0.281727 -0.373047,-0.345703 -0.0071,-0.0096 -0.01172,-0.0052 -0.01172,-0.07422 0,-0.18868 0.02763,-0.255018 0.09961,-0.363281 l 0.01172,-0.01953 c 0.04998,-0.07711 0.135071,-0.180919 0.43164,-0.3125 h 0.002 l 0.01758,-0.0078 0.01172,-0.0059 C 49.162509,40.46856 49.587941,40.3593 50.253916,40.3593 Z m -2.630859,9.935547 c 0.420854,0.155065 0.812566,0.337317 1.248047,0.478515 l 0.002,0.002 0.0098,0.0039 h 0.002 c 0.938171,0.296142 1.665325,0.571793 2.173828,0.808594 0.517483,0.240958 0.838714,0.456011 0.978515,0.578125 l 0.01172,0.01172 0.01953,0.01563 c 0.107829,0.09304 0.102571,0.11543 0.0918,0.08398 v 0.002 l 0.01172,0.0332 0.01367,0.03516 v 0.002 c 0.03155,0.08176 0.06641,0.218905 0.06641,0.449219 0,0.201556 -0.03198,0.283356 -0.101562,0.392578 -3.25e-4,5.1e-4 3.26e-4,0.0014 0,0.002 l -0.0098,0.01367 -0.0098,0.01758 c -8.3e-5,1.36e-4 -0.0019,-1.37e-4 -0.002,0 v 0.002 c -0.02116,0.03458 -0.06405,0.108109 -0.33789,0.226563 l -0.0098,0.0039 -0.002,0.002 c -0.206838,0.09133 -0.639515,0.197266 -1.326172,0.197266 -0.572522,0 -1.065107,-0.05859 -1.488281,-0.160156 -0.35577,-0.08766 -0.604358,-0.211191 -0.800782,-0.355469 -0.141891,-0.110343 -0.255423,-0.239869 -0.365234,-0.486328 -0.08761,-0.196726 -0.175781,-0.552463 -0.175781,-1.109375 z"
     id="path169"
     sodipodi:nodetypes="scccscccccccccccccccccccccccccsccccccccccccccsccccccccscccsccccccscccccccsscccccccccccsccccccccsccccsccccccccscccscccccscccccccccscccccsccccccccccccccccscccccccccsccccccccccccccccccccscccsccsccccccccccccccccccccccssccccccccsccccc" />
</svg>
